# Blender 3.6.8
# www.blender.org
mtllib sword.mtl
o sword
v -0.300000 0.892965 0.033041
v 0.171724 6.204550 0.004894
v -0.300000 0.892965 -0.033041
v 0.171767 6.204207 -0.022358
v 0.300000 0.892965 0.033041
v 0.486775 6.204207 0.004894
v 0.300000 0.892965 -0.033041
v 0.486775 6.204207 -0.022358
v 0.200000 0.892965 -0.033041
v 0.081010 0.892965 -0.033041
v 0.281948 6.404207 -0.022358
v 0.386775 6.304208 -0.022358
v 0.081010 0.892965 0.033041
v 0.200000 0.892965 0.033041
v 0.386775 6.304208 0.004894
v 0.281948 6.404207 0.004894
v -0.214728 2.916362 0.017804
v -0.114728 3.020173 0.017804
v 0.157663 5.445184 0.013473
v -0.048682 5.548995 0.005309
v -0.048682 5.548995 -0.021943
v 0.157663 5.445184 -0.030107
v -0.114728 3.020173 -0.025776
v -0.214728 2.916362 -0.025776
v 0.477904 5.548995 -0.030459
v 0.477904 5.445184 -0.030459
v 0.385272 3.020173 -0.026128
v 0.385272 2.916362 -0.026128
v 0.477904 5.548995 0.013824
v 0.477904 5.445184 0.013824
v 0.385272 3.020173 0.018155
v 0.385272 2.916362 0.018155
v 0.377904 5.548995 0.025102
v 0.377904 5.445184 0.025102
v 0.285272 3.020173 0.029433
v 0.285272 2.916362 0.029433
v 0.258914 5.548995 0.025102
v 0.258914 5.445184 0.025102
v 0.166282 3.020173 0.029433
v 0.166282 2.916362 0.029433
v 0.258914 5.548995 -0.041736
v 0.258914 5.445184 -0.041736
v 0.166282 3.020173 -0.037405
v 0.166282 2.916362 -0.037405
v 0.377904 5.548995 -0.041736
v 0.377904 5.445184 -0.041736
v 0.285272 3.020173 -0.037405
v 0.285272 2.916362 -0.037405
v 0.085297 4.298979 0.015651
v 0.085297 4.298979 -0.027929
v 0.431312 4.298979 -0.028280
v 0.431312 4.298979 0.016003
v 0.331312 4.298979 0.027280
v 0.212321 4.298979 0.027280
v 0.212321 4.298979 -0.039558
v 0.331312 4.298979 -0.039558
v 0.157451 5.548995 0.016654
v 0.156409 5.548995 -0.033236
v -0.063338 0.892965 -0.033041
v 0.025777 3.020173 -0.031591
v 0.021933 2.916362 -0.031591
v -0.063338 0.892965 0.033041
v 0.025777 3.020173 0.023618
v 0.021933 2.916362 0.023618
v -0.140958 -0.004708 0.076991
v -0.140958 -0.004708 -0.076991
v -0.080897 0.993719 -0.076991
v 0.158318 -0.004708 0.076991
v 0.158318 -0.004708 -0.076991
v 0.098283 0.993719 -0.076991
v -0.098204 0.086696 0.076991
v -0.062576 0.118101 0.076991
v -0.045513 0.353330 0.076991
v -0.059444 0.572203 0.076991
v -0.080897 0.717290 0.076991
v -0.081540 0.717290 -0.076991
v -0.059444 0.572203 -0.076991
v -0.045513 0.353330 -0.076991
v -0.062576 0.118101 -0.076991
v -0.098204 0.086696 -0.076991
v 0.097640 0.717290 -0.076991
v 0.076829 0.572203 -0.076991
v 0.062873 0.353330 -0.076991
v 0.079936 0.118101 -0.076991
v 0.115564 0.086696 -0.076991
v 0.098283 0.717290 0.076991
v 0.076829 0.572203 0.076991
v 0.062873 0.353330 0.076991
v 0.079936 0.118101 0.076991
v 0.115564 0.086696 0.076991
v -0.214494 0.851272 -0.076991
v -0.395831 0.827314 -0.076991
v -0.395831 0.955075 -0.076991
v -0.214494 0.993719 -0.076991
v -0.395831 0.955075 0.076991
v -0.214494 0.993719 0.076991
v -0.395831 0.827314 0.076991
v -0.214494 0.851272 0.076991
v 0.231879 0.851272 -0.076991
v 0.413231 0.827314 -0.076991
v 0.413231 0.827314 0.076991
v 0.231879 0.851272 0.076991
v 0.231879 0.993719 -0.076991
v 0.413231 0.955075 -0.076991
v 0.231879 0.993719 0.076991
v 0.413231 0.955075 0.076991
v 0.097832 0.827314 -0.076991
v -0.081347 0.827314 -0.076991
v -0.058202 0.978433 0.100162
v -0.083764 0.993719 0.076991
v 0.075587 0.978433 0.100162
v 0.101149 0.993719 0.076991
v 0.075587 0.842601 0.100162
v 0.101149 0.812028 0.076991
v -0.058202 0.842601 0.100162
v -0.083764 0.812028 0.076991
v -0.070170 0.665446 0.076991
v -0.070492 0.665446 -0.076991
v 0.087235 0.665446 -0.076991
v 0.087556 0.665446 0.076991
v -0.082710 0.680393 0.089425
v -0.095169 0.707403 0.089425
v 0.112948 0.707403 0.089425
v 0.112201 0.707403 -0.089425
v -0.095916 0.707403 -0.089425
v -0.083083 0.680393 -0.089425
v 0.100115 0.680393 -0.089425
v 0.100489 0.680393 0.089425
v -0.649722 1.007966 0.044313
v -0.632932 0.989555 0.076991
v -0.632931 1.044217 0.076991
v -0.649722 1.029490 0.044313
v -0.632931 1.044217 -0.076991
v -0.649722 1.029490 -0.044313
v -0.632932 0.989555 -0.076991
v -0.649722 1.007966 -0.044313
v 0.667153 1.027833 -0.044095
v 0.649917 1.043922 -0.076991
v 0.649917 1.043922 0.076991
v 0.667153 1.027833 0.044095
v 0.667153 1.009624 -0.044095
v 0.649917 0.989072 -0.076991
v 0.649917 0.989072 0.076991
v 0.667153 1.009624 0.044095
vn -0.9478 0.3188 -0.0027
vn -0.9152 0.4030 -0.0032
vn -0.9157 0.4019 -0.0032
vn 0.0470 0.0106 -0.9988
vn 0.0247 0.0225 -0.9994
vn 0.0656 0.0186 -0.9977
vn 0.0887 0.0094 -0.9960
vn 1.0000 -0.0067 -0.0000
vn 0.9999 -0.0135 -0.0000
vn -0.0375 0.0080 0.9993
vn -0.0152 0.0241 0.9996
vn -0.0605 0.0223 0.9979
vn -0.0674 -0.0011 0.9977
vn -0.0000 -1.0000 -0.0000
vn -0.8757 0.4829 -0.0037
vn 0.7071 0.7071 -0.0000
vn 0.6987 0.7154 -0.0000
vn 0.6902 0.7236 -0.0000
vn 0.0890 0.0099 0.9960
vn 0.0661 0.0198 0.9976
vn 0.0252 0.0236 0.9994
vn 0.0473 0.0112 0.9988
vn -0.0550 0.0046 -0.9985
vn -0.0596 0.0211 -0.9980
vn -0.0670 -0.0018 -0.9977
vn -0.0373 0.0074 -0.9993
vn -0.0151 0.0230 -0.9996
vn -0.0103 -0.0010 -0.9999
vn -0.0151 -0.0003 -0.9999
vn 0.0425 -0.0010 -0.9991
vn 0.0274 -0.0020 -0.9996
vn -0.0268 0.0006 -0.9996
vn 0.0555 -0.0018 -0.9985
vn -0.0419 0.0008 -0.9991
vn -0.0493 -0.0036 -0.9988
vn 0.0568 -0.0021 -0.9984
vn 0.0560 -0.0039 -0.9984
vn -0.0123 0.0027 -0.9999
vn -0.0185 0.0069 -0.9998
vn -0.0260 0.0048 -0.9997
vn -0.0161 0.0014 -0.9999
vn -0.0348 0.0114 -0.9993
vn -0.0444 0.0060 -0.9990
vn -0.0812 0.0034 -0.9967
vn -0.0885 -0.0123 -0.9960
vn 0.0274 0.0020 0.9996
vn 0.0425 0.0010 0.9991
vn -0.0151 0.0016 0.9999
vn -0.0103 0.0030 0.9999
vn 0.0555 -0.0001 0.9985
vn -0.0268 0.0023 0.9996
vn 0.0560 -0.0004 0.9984
vn 0.0568 -0.0002 0.9984
vn -0.0494 -0.0016 0.9988
vn -0.0419 0.0044 0.9991
vn 0.0563 0.0022 0.9984
vn 0.0846 0.0011 0.9964
vn 0.1121 -0.0012 0.9937
vn 0.1121 -0.0025 0.9937
vn 0.1121 -0.0013 0.9937
vn -0.0260 0.0068 0.9996
vn -0.0161 0.0054 0.9999
vn -0.0444 0.0077 0.9990
vn -0.0885 -0.0108 0.9960
vn -0.0812 0.0069 0.9967
vn 0.9991 -0.0421 -0.0000
vn 0.9998 -0.0211 -0.0000
vn 0.9998 -0.0180 -0.0000
vn 0.9993 -0.0383 -0.0000
vn 0.9998 -0.0203 -0.0000
vn 0.0846 -0.0009 -0.9964
vn 0.0563 -0.0017 -0.9984
vn 0.1121 -0.0029 -0.9937
vn 0.1121 -0.0032 -0.9937
vn 0.1121 -0.0061 -0.9937
vn -0.9991 0.0421 -0.0000
vn -0.7202 0.6938 -0.0000
vn -0.9940 0.1089 -0.0000
vn -0.9980 0.0630 -0.0000
vn -0.9941 0.1088 -0.0000
vn -0.4494 -0.8933 -0.0000
vn -0.9880 0.1545 -0.0000
vn -0.0550 0.0056 0.9985
vn -0.0185 0.0095 0.9998
vn -0.0123 0.0066 0.9999
vn -0.0348 0.0127 0.9993
vn -0.0000 -0.0000 1.0000
vn -0.0000 -0.0000 -1.0000
vn -0.0000 -0.6395 -0.7688
vn 0.9058 0.4237 -0.0000
vn 0.8004 0.5995 -0.0000
vn 0.6612 0.7502 -0.0000
vn 0.9974 0.0723 -0.0000
vn 1.0000 0.0044 -0.0000
vn 0.9961 -0.0881 -0.0005
vn -0.0000 -0.6395 0.7688
vn -0.0000 0.7827 -0.6224
vn -0.9058 0.4237 -0.0000
vn -0.8003 0.5995 -0.0000
vn -0.6612 0.7502 -0.0000
vn -0.9974 0.0723 -0.0000
vn -1.0000 0.0044 -0.0000
vn -0.9960 -0.0898 0.0005
vn -0.7654 -0.6435 0.0016
vn -0.8579 -0.5138 0.0024
vn -0.8580 -0.5137 0.0024
vn -0.0000 1.0000 -0.0000
vn 0.1048 0.9945 -0.0000
vn -0.5647 -0.8253 -0.0000
vn -0.6192 -0.7852 -0.0000
vn -0.9642 -0.0000 0.2652
vn -0.9655 -0.0000 0.2604
vn -0.9655 -0.0000 -0.2604
vn -0.9642 -0.0000 -0.2652
vn 0.3519 0.9360 -0.0000
vn 0.9623 -0.0000 -0.2719
vn 0.9639 -0.0000 -0.2664
vn 0.9639 -0.0000 0.2664
vn 0.9623 -0.0000 0.2719
vn 0.5642 -0.8256 -0.0000
vn 0.6305 -0.7762 -0.0000
vn -0.7090 -0.7052 0.0015
vn 0.1310 -0.9914 -0.0000
vn -0.1048 0.9945 -0.0000
vn -0.2084 0.9780 -0.0000
vn 0.2084 0.9780 -0.0000
vn 0.7073 -0.7069 -0.0015
vn -0.1310 -0.9914 -0.0000
vn -0.6716 -0.0000 0.7409
vn -0.0000 0.8347 0.5507
vn -0.0000 -0.6040 0.7970
vn 0.6716 -0.0000 0.7409
vn -0.9933 -0.1160 0.0010
vn 0.9936 -0.1126 -0.0010
vn 0.8587 -0.5126 -0.0024
vn 0.9104 -0.4137 -0.0028
vn 0.8588 -0.5124 -0.0024
vn -0.9057 -0.4240 0.0028
vn -0.5681 0.8230 0.0024
vn -0.0000 0.7827 0.6224
vn 0.7569 -0.6536 -0.0016
vn 0.5604 0.8282 -0.0023
vn -0.8895 -0.0000 0.4570
vn -0.6594 0.7518 -0.0000
vn -0.8895 -0.0000 -0.4570
vn -0.7389 -0.6738 -0.0000
vn 0.6824 0.7310 -0.0000
vn 0.8858 -0.0000 -0.4641
vn 0.8858 -0.0000 0.4641
vn 0.7662 -0.6426 -0.0000
vn -0.3514 0.9362 -0.0000
vt 0.745984 0.250941
vt 0.745990 0.149745
vt 0.782795 0.149742
vt 0.782789 0.250943
vt 0.519467 0.226974
vt 0.517584 0.279107
vt 0.471483 0.266230
vt 0.472758 0.229194
vt 0.819834 0.607868
vt 0.808334 0.642061
vt 0.771528 0.642061
vt 0.760027 0.607868
vt 0.555588 0.608251
vt 0.561660 0.670267
vt 0.510493 0.648951
vt 0.508742 0.610781
vt 0.284005 0.596237
vt 0.284005 0.551218
vt 0.373251 0.551218
vt 0.373251 0.596237
vt 0.782793 0.095272
vt 0.745988 0.095273
vt 0.782789 0.000352
vt 0.782791 0.046756
vt 0.745986 0.046757
vt 0.745984 0.000353
vt 0.284005 0.821331
vt 0.284005 0.714789
vt 0.373251 0.714789
vt 0.373251 0.821331
vt 0.284005 0.649805
vt 0.373251 0.649805
vt 0.653781 0.608864
vt 0.655548 0.645816
vt 0.609718 0.659299
vt 0.607214 0.607211
vt 0.712504 0.234614
vt 0.616385 0.267606
vt 0.618297 0.229663
vt 0.571198 0.227405
vt 0.565724 0.289428
vt 0.572799 0.000897
vt 0.572535 0.103027
vt 0.518596 0.102875
vt 0.519142 0.000675
vt 0.572506 0.114758
vt 0.518633 0.114627
vt 0.572123 0.165709
vt 0.571521 0.216023
vt 0.519301 0.215544
vt 0.518828 0.165527
vt 0.744247 0.000352
vt 0.745280 0.103109
vt 0.638276 0.103231
vt 0.637802 0.001029
vt 0.700359 0.115311
vt 0.636501 0.114943
vt 0.631254 0.166526
vt 0.619286 0.217234
vt 0.606949 0.381398
vt 0.607622 0.483561
vt 0.553719 0.483664
vt 0.553408 0.381639
vt 0.607597 0.495295
vt 0.553757 0.495412
vt 0.607564 0.546037
vt 0.607338 0.595898
vt 0.555196 0.596727
vt 0.554268 0.546361
vt 0.651928 0.381059
vt 0.655325 0.483884
vt 0.655247 0.495593
vt 0.654856 0.546510
vt 0.654136 0.597272
vt 0.487912 0.483957
vt 0.488374 0.381738
vt 0.489698 0.495681
vt 0.507177 0.598324
vt 0.494990 0.547372
vt 0.834555 0.381059
vt 0.819834 0.482780
vt 0.760027 0.482780
vt 0.745308 0.381059
vt 0.819834 0.494464
vt 0.760027 0.494464
vt 0.819834 0.545324
vt 0.819834 0.596185
vt 0.760027 0.596185
vt 0.760027 0.545324
vt 0.470761 0.103235
vt 0.474128 0.000352
vt 0.470841 0.114976
vt 0.472257 0.217327
vt 0.471193 0.166112
vt 0.470057 0.000352
vt 0.454863 0.102073
vt 0.396006 0.102073
vt 0.380811 0.000352
vt 0.454863 0.148583
vt 0.396006 0.148583
vt 0.454863 0.234562
vt 0.454863 0.286729
vt 0.396006 0.286729
vt 0.396006 0.234562
vt 0.443837 0.380355
vt 0.407032 0.380355
vt 0.413619 0.616561
vt 0.380811 0.483888
vt 0.381839 0.381059
vt 0.425764 0.496079
vt 0.246516 0.329354
vt 0.257178 0.330645
vt 0.261593 0.389498
vt 0.209018 0.248582
vt 0.221400 0.248668
vt 0.221400 0.329333
vt 0.209018 0.329246
vt 0.261600 0.188547
vt 0.257181 0.247400
vt 0.246519 0.248690
vt 0.864918 0.667995
vt 0.999648 0.667995
vt 0.999648 0.875957
vt 0.864918 0.875957
vt 0.277627 0.330646
vt 0.277625 0.389499
vt 0.068327 0.579748
vt 0.067714 0.602875
vt 0.018798 0.687589
vt 0.000352 0.699509
vt 0.062670 0.618850
vt 0.030001 0.675551
vt 0.380107 0.533527
vt 0.355147 0.531158
vt 0.343215 0.482456
vt 0.370549 0.474101
vt 0.334309 0.543133
vt 0.317200 0.483417
vt 0.731897 0.420184
vt 0.662471 0.403166
vt 0.660973 0.385306
vt 0.738032 0.404882
vt 0.260593 0.810372
vt 0.238432 0.807395
vt 0.237688 0.600411
vt 0.260593 0.600324
vt 0.222449 0.809439
vt 0.221187 0.600511
vt 0.351631 0.204448
vt 0.324618 0.207321
vt 0.356149 0.006090
vt 0.380107 0.009791
vt 0.298972 0.201238
vt 0.332864 0.002214
vt 0.662163 0.645150
vt 0.731712 0.627584
vt 0.738217 0.643361
vt 0.660808 0.663077
vt 0.133489 0.856882
vt 0.148833 0.840411
vt 0.162231 0.831555
vt 0.349128 0.265606
vt 0.321300 0.261842
vt 0.295572 0.266593
vt 0.791004 0.226106
vt 0.871669 0.226106
vt 0.878224 0.242936
vt 0.784532 0.242936
vt 0.283174 0.595372
vt 0.283301 0.803334
vt 0.277410 0.820126
vt 0.277262 0.578579
vt 0.208314 0.249275
vt 0.000352 0.247984
vt 0.000352 0.189131
vt 0.208314 0.189131
vt 0.380811 0.814656
vt 0.588773 0.814656
vt 0.588773 0.922947
vt 0.380811 0.922947
vt 0.235780 0.107092
vt 0.221400 0.107092
vt 0.239660 0.000352
vt 0.245812 0.000352
vt 0.857586 0.445616
vt 0.859652 0.445691
vt 0.859335 0.541742
vt 0.857090 0.541794
vt 0.000352 0.471834
vt 0.208314 0.471834
vt 0.208314 0.579045
vt 0.000352 0.579045
vt 0.221400 0.471322
vt 0.235779 0.471322
vt 0.245779 0.577875
vt 0.239606 0.577875
vt 0.273286 0.106905
vt 0.258907 0.106904
vt 0.277116 0.000352
vt 0.283289 0.000352
vt 0.841248 0.446236
vt 0.843186 0.446278
vt 0.843552 0.543468
vt 0.841745 0.543540
vt 0.864214 0.776092
vt 0.656252 0.776092
vt 0.656252 0.667995
vt 0.864214 0.667995
vt 0.380811 0.671252
vt 0.588773 0.670971
vt 0.588773 0.732976
vt 0.380811 0.732976
vt 0.273272 0.471135
vt 0.258893 0.471134
vt 0.208314 0.329939
vt 0.000352 0.331230
vt 0.000352 0.390083
vt 0.208314 0.390083
vt 0.240129 0.248871
vt 0.224097 0.188728
vt 0.240129 0.188728
vt 0.277632 0.188548
vt 0.277630 0.247400
vt 0.000352 0.107373
vt 0.208314 0.107373
vt 0.224097 0.389679
vt 0.240129 0.389679
vt 0.864214 0.919784
vt 0.656252 0.920065
vt 0.656252 0.857779
vt 0.864214 0.857779
vt 0.240129 0.329536
vt 0.630808 0.719441
vt 0.622991 0.719912
vt 0.608038 0.670971
vt 0.653457 0.676812
vt 0.589476 0.794322
vt 0.622247 0.741204
vt 0.653533 0.794322
vt 0.628338 0.742420
vt 0.486048 0.290132
vt 0.486048 0.350362
vt 0.470761 0.350362
vt 0.470761 0.290132
vt 0.305688 0.482964
vt 0.284005 0.269714
vt 0.288461 0.197313
vt 0.321923 0.000352
vt 0.325865 0.550515
vt 0.744571 0.644763
vt 0.656252 0.667291
vt 0.744604 0.403447
vt 0.656252 0.381059
vt 0.271030 0.820126
vt 0.270734 0.578578
vt 0.790114 0.018145
vt 0.783499 0.001390
vt 0.873114 0.018148
vt 0.792455 0.017251
vt 0.786217 0.000352
vt 0.879903 0.001394
vt 0.851241 0.381059
vt 0.866482 0.381205
vt 0.864578 0.606840
vt 0.851241 0.606899
vt 0.283301 0.577875
vt 0.277149 0.577875
vt 0.848527 0.381166
vt 0.850537 0.608130
vt 0.835258 0.381059
vt 0.835258 0.608352
vt 0.000352 0.000352
vt 0.208314 0.000352
s 1
usemtl Material.001
f 20/1/1 2/2/2 4/3/3 21/4/1
f 45/5/4 12/6/5 8/7/6 25/8/7
f 25/9/8 8/10/9 6/11/9 29/12/8
f 37/13/10 16/14/11 2/15/12 57/16/13
f 9/17/14 7/18/14 5/19/14 14/20/14
f 11/21/15 4/3/3 2/2/2 16/22/15
f 8/23/16 12/24/17 15/25/17 6/26/16
f 12/24/17 11/21/18 16/22/18 15/25/17
f 3/27/14 59/28/14 62/29/14 1/30/14
f 10/31/14 9/17/14 14/20/14 13/32/14
f 29/33/19 6/34/20 15/35/21 33/36/22
f 33/36/22 15/35/21 16/14/11 37/13/10
f 21/37/23 4/38/24 58/39/25
f 41/40/26 11/41/27 12/6/5 45/5/4
f 10/42/28 44/43/29 48/44/30 9/45/31
f 44/43/29 43/46/32 47/47/33 48/44/30
f 55/48/34 42/49/35 46/50/36 56/51/37
f 42/49/35 41/40/26 45/5/4 46/50/36
f 3/52/38 24/53/39 61/54/40 59/55/41
f 24/53/39 23/56/42 60/57/43 61/54/40
f 50/58/44 22/59/45 42/49/35 55/48/34
f 22/59/45 58/39/25 41/40/26 42/49/35
f 14/60/46 36/61/47 40/62/48 13/63/49
f 36/61/47 35/64/50 39/65/51 40/62/48
f 53/66/52 34/67/53 38/68/54 54/69/55
f 34/67/53 33/36/22 37/13/10 38/68/54
f 5/70/56 32/71/57 36/61/47 14/60/46
f 32/71/57 31/72/58 35/64/50 36/61/47
f 52/73/59 30/74/60 34/67/53 53/66/52
f 30/74/60 29/33/19 33/36/22 34/67/53
f 13/63/49 40/62/48 64/75/61 62/76/62
f 40/62/48 39/65/51 63/77/63 64/75/61
f 54/69/55 38/68/54 19/78/64 49/79/65
f 38/68/54 37/13/10 57/16/13 19/78/64
f 7/80/66 28/81/67 32/82/67 5/83/66
f 28/81/67 27/84/68 31/85/68 32/82/67
f 51/86/69 26/87/70 30/88/70 52/89/69
f 26/87/70 25/9/8 29/12/8 30/88/70
f 9/45/31 48/44/30 28/90/71 7/91/72
f 48/44/30 47/47/33 27/92/73 28/90/71
f 56/51/37 46/50/36 26/93/74 51/94/75
f 46/50/36 45/5/4 25/8/7 26/93/74
f 1/95/76 17/96/76 24/97/76 3/98/76
f 17/96/77 18/99/77 23/100/77 24/97/77
f 49/101/78 19/102/79 22/103/79 50/104/80
f 19/102/81 20/105/81 21/106/81 22/103/81
f 18/99/82 49/101/78 50/104/80 23/100/82
f 47/47/33 56/51/37 51/94/75 27/92/73
f 27/84/68 51/86/69 52/89/69 31/85/68
f 39/65/51 54/69/55 49/79/65 63/77/63
f 31/72/58 52/73/59 53/66/52 35/64/50
f 35/64/50 53/66/52 54/69/55 39/65/51
f 23/56/42 50/58/44 60/57/43
f 43/46/32 55/48/34 56/51/37 47/47/33
f 57/16/13 2/15/12 20/107/83
f 19/78/64 57/16/13 20/107/83
f 58/39/25 22/59/45 21/37/23
f 58/39/25 4/38/24 11/41/27 41/40/26
f 60/57/43 50/58/44 55/48/34 43/46/32
f 59/55/41 61/54/40 44/43/29 10/42/28
f 61/54/40 60/57/43 43/46/32 44/43/29
f 62/76/62 64/75/61 17/108/84 1/109/85
f 64/75/61 63/77/63 18/110/86 17/108/84
f 63/77/63 49/79/65 18/110/86
f 62/29/14 59/28/14 10/31/14 13/32/14
f 75/111/87 116/112/87 98/113/87
f 76/114/88 108/115/88 107/116/88 81/117/88
f 102/118/87 114/119/87 86/120/87
f 66/121/14 69/122/14 68/123/14 65/124/14
f 98/113/87 116/112/87 110/125/87 96/126/87
f 68/127/87 90/128/87 71/129/87 65/130/87
f 90/128/87 89/131/87 72/132/87 71/129/87
f 89/133/87 88/134/87 73/135/87 72/136/87
f 88/134/87 87/137/87 74/138/87 73/135/87
f 119/139/89 118/140/89 126/141/89 127/142/89
f 69/143/90 85/144/91 90/145/91 68/146/90
f 85/144/91 84/147/92 89/148/92 90/145/91
f 84/149/93 83/150/94 88/151/94 89/152/93
f 83/150/94 82/153/95 87/154/95 88/151/94
f 117/155/96 120/156/96 128/157/96 121/158/96
f 66/159/88 80/160/88 85/144/88 69/143/88
f 80/160/88 79/161/88 84/147/88 85/144/88
f 79/162/88 78/163/88 83/150/88 84/149/88
f 78/163/88 77/164/88 82/153/88 83/150/88
f 76/165/97 81/166/97 124/167/97 125/168/97
f 65/130/98 71/129/99 80/160/99 66/159/98
f 71/129/99 72/132/100 79/161/100 80/160/99
f 72/136/101 73/135/102 78/163/102 79/162/101
f 73/135/102 74/138/103 77/164/103 78/163/102
f 118/169/104 117/170/104 121/171/105 126/172/106
f 70/173/107 112/174/107 105/175/108 103/176/108
f 92/177/109 97/178/109 130/179/110 135/180/110
f 93/181/88 92/182/88 135/183/88 133/184/88
f 129/185/111 132/186/112 134/187/113 136/188/114
f 95/189/115 93/190/115 133/191/115 131/192/115
f 100/193/88 104/194/88 138/195/88 142/196/88
f 106/197/87 101/198/87 143/199/87 139/200/87
f 141/201/116 137/202/117 140/203/118 144/204/119
f 101/205/120 100/206/120 142/207/121 143/208/121
f 76/209/122 75/210/122 98/211/122 91/212/122
f 91/212/123 98/211/123 97/178/123 92/177/123
f 98/113/87 96/126/87 95/213/87 97/214/87
f 70/173/107 67/215/107 110/216/107 112/174/107
f 96/217/124 94/218/124 93/190/125 95/189/125
f 67/219/88 108/115/88 91/220/88 94/221/88
f 94/221/88 91/220/88 92/182/88 93/181/88
f 86/120/87 114/119/87 116/112/87 75/111/87
f 105/222/87 102/118/87 101/198/87 106/197/87
f 112/223/87 114/119/87 102/118/87 105/222/87
f 103/176/108 105/175/108 106/224/126 104/225/126
f 81/117/88 107/116/88 99/226/88
f 99/226/88 103/227/88 104/194/88 100/193/88
f 86/228/127 81/229/127 99/230/127 102/231/127
f 102/231/128 99/230/128 100/206/128 101/205/128
f 110/216/107 67/215/107 94/218/124 96/217/124
f 107/116/88 108/115/88 67/219/88 70/232/88
f 99/226/88 107/116/88 70/232/88 103/227/88
f 91/220/88 108/115/88 76/114/88
f 115/233/129 109/234/129 110/235/129 116/236/129
f 112/237/130 110/235/130 109/234/130 111/238/130
f 116/236/131 114/239/131 113/240/131 115/233/131
f 111/238/132 113/240/132 114/239/132 112/237/132
f 115/241/87 113/242/87 111/243/87 109/244/87
f 74/138/103 117/245/133 118/246/133 77/164/103
f 77/164/88 118/246/88 119/247/88 82/153/88
f 82/153/95 119/247/134 120/248/134 87/154/95
f 87/137/87 120/249/87 117/245/87 74/138/87
f 128/157/87 123/250/87 122/251/87 121/158/87
f 127/142/135 124/252/136 123/250/136 128/157/137
f 126/141/88 125/253/88 124/252/88 127/142/88
f 121/171/105 122/254/138 125/255/138 126/172/106
f 75/256/139 76/165/139 125/168/139 122/257/139
f 86/258/140 75/259/140 122/260/140 123/261/140
f 120/156/141 119/139/141 127/142/135 128/157/137
f 81/166/142 86/258/142 123/261/142 124/167/142
f 130/262/143 131/263/143 132/186/112 129/185/111
f 131/263/144 133/264/144 134/187/144 132/186/144
f 133/264/145 135/265/145 136/188/114 134/187/113
f 129/185/146 136/188/146 135/265/110 130/262/110
f 97/214/87 95/213/87 131/266/87 130/267/87
f 138/268/147 139/269/147 140/203/147 137/202/147
f 137/202/117 141/201/116 142/270/148 138/268/148
f 139/269/149 143/271/149 144/204/119 140/203/118
f 141/201/150 144/204/150 143/271/121 142/270/121
f 104/225/151 106/224/151 139/272/151 138/273/151
